<svg width="111" height="97" viewBox="0 0 111 97" xmlns="http://www.w3.org/2000/svg">
<path d="M69.2521 45.9027L58.6113 67.0853C57.3281 69.64 53.6123 69.5591 52.4357 66.9523L40.2745 40.0482L33.8575 55.3231L12.9091 55.3125L50.5779 94.1012C53.2813 96.8836 57.7016 96.8836 60.4072 94.1012L98.0759 55.3125L74.1379 55.3136L69.2521 45.9027ZM99.7458 7.38229C88.1377 -2.61932 70.3839 -0.814004 59.7068 10.1626L55.5 14.4907L51.2932 10.1626C40.6161 -0.814004 22.8708 -2.61932 11.2563 7.38229C-1.00954 17.9502 -2.40397 36.0672 6.85092 48.5H29.2728L36.9454 30.1382C38.1215 27.3961 41.9977 27.345 43.2534 30.0583L55.6836 57.6064L66.1621 36.7431C67.4186 34.2416 71.0266 34.2416 72.2844 36.7431L78.1931 48.5053H104.138C113.412 36.0672 112.003 17.9502 99.7458 7.38229Z" fill="#40BFBC"/>
</svg>
