<svg width="95" height="109" viewBox="0 0 95 109" fill="none" xmlns="http://www.w3.org/2000/svg">
<path d="M47.012 31.671C47.6691 34.3529 47.6903 37.1626 47.118 39.8658C46.5245 42.3987 45.3163 45.1232 43.6206 47.2943C40.5472 50.8064 36.7107 53.0413 32.0687 54.1056V100.486C32.0687 102.742 31.3693 104.913 29.7795 106.51C28.1898 108.106 26.0278 109 23.5903 109C21.5343 109 19.3765 108.106 17.7847 106.51C16.195 104.913 15.1118 102.742 15.1118 100.486V54.1056C10.8429 53.2542 6.81567 50.8702 3.92028 47.3582C2.20127 45.1871 1.00136 42.6541 0.413382 39.9296C-0.174599 37.2051 -0.134856 34.3955 0.529536 31.6923L6.93225 2.66997C7.11241 1.85006 7.58933 1.12615 8.26972 0.637232C8.948 0.148099 9.78524 -0.0715 10.6161 0.0205158C11.4491 0.111531 12.2207 0.51016 12.7803 1.13935C13.3398 1.76833 13.6451 2.5827 13.6408 3.42559V34.0762H17.3226L20.945 2.55503C21.0298 1.85794 21.3647 1.2164 21.8946 0.750895C22.4033 0.285601 23.0816 0.0284977 23.5903 0.0284977C24.4805 0.0284977 25.1588 0.285601 25.6675 0.750895C26.1974 1.2164 26.3458 1.85794 26.6213 2.55503L30.2459 34.0762H33.7644V3.42559C33.7644 2.58908 34.2519 1.77982 34.6123 1.15169C35.3541 0.523569 36.1172 0.120854 36.9438 0.0205158C37.7705 -0.070755 38.4276 0.151718 39.2966 0.644895C39.9749 1.13807 40.4412 1.86688 40.632 2.69125L47.012 31.671ZM95 100.486C95 102.742 94.1098 104.913 92.5201 106.51C90.9303 108.106 88.7683 109 86.5216 109C84.2748 109 82.1128 108.106 80.5231 106.51C78.9333 104.913 78.0431 102.742 78.0431 100.486V74.9437H74.4822C72.7017 74.9437 70.9212 74.5819 69.2679 73.9008C67.6358 73.1983 66.1309 72.198 64.8591 70.9208C63.6085 69.6437 62.6123 68.1325 61.7433 66.4722C61.2558 64.812 60.9166 63.024 60.9166 61.2361L60.8954 37.0136C61.0862 29.1593 63.439 21.4754 67.8266 14.9792C72.2142 8.4723 78.4246 3.43623 85.6949 0.517822C86.5427 0.105316 87.8357 -0.0481927 88.9379 0.0708552C90.0401 0.189861 91.0999 0.577634 92.0113 1.20044C92.9228 1.82324 93.6858 2.66145 94.1945 3.64483C94.7245 4.62607 94.8092 5.72013 95 6.83121V100.486Z" fill="#F27457"/>
</svg>
